<mxfile host="app.diagrams.net" agent="Mozilla/5.0 (Windows NT 10.0; Win64; x64) AppleWebKit/537.36 (KHTML, like Gecko) Chrome/130.0.0.0 Safari/537.36 Edg/130.0.0.0" version="24.8.0">
  <diagram name="Seite-1" id="VVzTUd8pl2ljvJQohsMs">
    <mxGraphModel dx="1042" dy="565" grid="1" gridSize="10" guides="1" tooltips="1" connect="1" arrows="1" fold="1" page="1" pageScale="1" pageWidth="827" pageHeight="1169" math="0" shadow="0">
      <root>
        <mxCell id="0" />
        <mxCell id="1" parent="0" />
        <mxCell id="_YYFCsjl2TJpTi-xhkoP-2" value="tier" style="whiteSpace=wrap;html=1;align=center;" vertex="1" parent="1">
          <mxGeometry x="314" y="150" width="100" height="40" as="geometry" />
        </mxCell>
        <mxCell id="_YYFCsjl2TJpTi-xhkoP-3" value="Geburtsdatum" style="ellipse;whiteSpace=wrap;html=1;align=center;" vertex="1" parent="1">
          <mxGeometry x="340" y="70" width="100" height="40" as="geometry" />
        </mxCell>
        <mxCell id="_YYFCsjl2TJpTi-xhkoP-4" value="Zuchtregister" style="ellipse;whiteSpace=wrap;html=1;align=center;" vertex="1" parent="1">
          <mxGeometry x="150" y="120" width="100" height="40" as="geometry" />
        </mxCell>
        <mxCell id="_YYFCsjl2TJpTi-xhkoP-8" value="Namen" style="ellipse;whiteSpace=wrap;html=1;align=center;" vertex="1" parent="1">
          <mxGeometry x="190" y="60" width="100" height="40" as="geometry" />
        </mxCell>
        <mxCell id="_YYFCsjl2TJpTi-xhkoP-10" value="Art" style="ellipse;whiteSpace=wrap;html=1;align=center;" vertex="1" parent="1">
          <mxGeometry x="500" y="130" width="100" height="40" as="geometry" />
        </mxCell>
        <mxCell id="_YYFCsjl2TJpTi-xhkoP-11" value="SchulterhÃ¶he" style="ellipse;whiteSpace=wrap;html=1;align=center;" vertex="1" parent="1">
          <mxGeometry x="110" y="180" width="100" height="40" as="geometry" />
        </mxCell>
        <mxCell id="_YYFCsjl2TJpTi-xhkoP-12" value="Gewicht" style="ellipse;whiteSpace=wrap;html=1;align=center;" vertex="1" parent="1">
          <mxGeometry x="490" y="210" width="100" height="40" as="geometry" />
        </mxCell>
        <mxCell id="_YYFCsjl2TJpTi-xhkoP-15" value="Hersteller" style="whiteSpace=wrap;html=1;align=center;" vertex="1" parent="1">
          <mxGeometry x="690" y="360" width="100" height="40" as="geometry" />
        </mxCell>
        <mxCell id="_YYFCsjl2TJpTi-xhkoP-16" value="Namen" style="ellipse;whiteSpace=wrap;html=1;align=center;" vertex="1" parent="1">
          <mxGeometry x="530" y="380" width="100" height="40" as="geometry" />
        </mxCell>
        <mxCell id="_YYFCsjl2TJpTi-xhkoP-18" value="Namen" style="ellipse;whiteSpace=wrap;html=1;align=center;fontStyle=4;" vertex="1" parent="1">
          <mxGeometry x="600" y="310" width="100" height="40" as="geometry" />
        </mxCell>
        <mxCell id="_YYFCsjl2TJpTi-xhkoP-19" value="Telefonnr" style="ellipse;whiteSpace=wrap;html=1;align=center;" vertex="1" parent="1">
          <mxGeometry x="630" y="470" width="100" height="40" as="geometry" />
        </mxCell>
        <mxCell id="_YYFCsjl2TJpTi-xhkoP-20" value="Box" style="whiteSpace=wrap;html=1;align=center;" vertex="1" parent="1">
          <mxGeometry x="90" y="340" width="100" height="40" as="geometry" />
        </mxCell>
        <mxCell id="_YYFCsjl2TJpTi-xhkoP-21" value="Art" style="ellipse;whiteSpace=wrap;html=1;align=center;" vertex="1" parent="1">
          <mxGeometry x="180" y="400" width="100" height="40" as="geometry" />
        </mxCell>
        <mxCell id="_YYFCsjl2TJpTi-xhkoP-22" value="" style="endArrow=none;html=1;rounded=0;exitX=1;exitY=0.75;exitDx=0;exitDy=0;entryX=0.2;entryY=0;entryDx=0;entryDy=0;entryPerimeter=0;" edge="1" parent="1" source="_YYFCsjl2TJpTi-xhkoP-20" target="_YYFCsjl2TJpTi-xhkoP-21">
          <mxGeometry relative="1" as="geometry">
            <mxPoint x="330" y="390" as="sourcePoint" />
            <mxPoint x="490" y="390" as="targetPoint" />
          </mxGeometry>
        </mxCell>
        <mxCell id="_YYFCsjl2TJpTi-xhkoP-27" value="" style="endArrow=none;html=1;rounded=0;" edge="1" parent="1" source="_YYFCsjl2TJpTi-xhkoP-15">
          <mxGeometry relative="1" as="geometry">
            <mxPoint x="480" y="350" as="sourcePoint" />
            <mxPoint x="640" y="350" as="targetPoint" />
          </mxGeometry>
        </mxCell>
        <mxCell id="_YYFCsjl2TJpTi-xhkoP-28" value="" style="endArrow=none;html=1;rounded=0;exitX=0.976;exitY=0.73;exitDx=0;exitDy=0;exitPerimeter=0;" edge="1" parent="1" source="_YYFCsjl2TJpTi-xhkoP-16" target="_YYFCsjl2TJpTi-xhkoP-15">
          <mxGeometry relative="1" as="geometry">
            <mxPoint x="640" y="419.5" as="sourcePoint" />
            <mxPoint x="800" y="419.5" as="targetPoint" />
          </mxGeometry>
        </mxCell>
        <mxCell id="_YYFCsjl2TJpTi-xhkoP-29" value="" style="endArrow=none;html=1;rounded=0;" edge="1" parent="1" source="_YYFCsjl2TJpTi-xhkoP-19" target="_YYFCsjl2TJpTi-xhkoP-15">
          <mxGeometry relative="1" as="geometry">
            <mxPoint x="730" y="490" as="sourcePoint" />
            <mxPoint x="890" y="490" as="targetPoint" />
          </mxGeometry>
        </mxCell>
        <mxCell id="_YYFCsjl2TJpTi-xhkoP-30" value="" style="endArrow=none;html=1;rounded=0;" edge="1" parent="1" target="_YYFCsjl2TJpTi-xhkoP-2">
          <mxGeometry relative="1" as="geometry">
            <mxPoint x="200" y="200" as="sourcePoint" />
            <mxPoint x="360" y="200" as="targetPoint" />
          </mxGeometry>
        </mxCell>
        <mxCell id="_YYFCsjl2TJpTi-xhkoP-31" value="" style="endArrow=none;html=1;rounded=0;" edge="1" parent="1" target="_YYFCsjl2TJpTi-xhkoP-2">
          <mxGeometry relative="1" as="geometry">
            <mxPoint x="230" y="150" as="sourcePoint" />
            <mxPoint x="390" y="150" as="targetPoint" />
          </mxGeometry>
        </mxCell>
        <mxCell id="_YYFCsjl2TJpTi-xhkoP-32" value="" style="endArrow=none;html=1;rounded=0;" edge="1" parent="1" target="_YYFCsjl2TJpTi-xhkoP-2">
          <mxGeometry relative="1" as="geometry">
            <mxPoint x="250" y="90" as="sourcePoint" />
            <mxPoint x="410" y="90" as="targetPoint" />
          </mxGeometry>
        </mxCell>
        <mxCell id="_YYFCsjl2TJpTi-xhkoP-33" value="" style="endArrow=none;html=1;rounded=0;entryX=0.632;entryY=0.12;entryDx=0;entryDy=0;entryPerimeter=0;" edge="1" parent="1" target="_YYFCsjl2TJpTi-xhkoP-2">
          <mxGeometry relative="1" as="geometry">
            <mxPoint x="440" y="100" as="sourcePoint" />
            <mxPoint x="600" y="100" as="targetPoint" />
          </mxGeometry>
        </mxCell>
        <mxCell id="_YYFCsjl2TJpTi-xhkoP-34" value="" style="endArrow=none;html=1;rounded=0;" edge="1" parent="1" target="_YYFCsjl2TJpTi-xhkoP-10">
          <mxGeometry relative="1" as="geometry">
            <mxPoint x="414" y="160" as="sourcePoint" />
            <mxPoint x="504" y="160" as="targetPoint" />
          </mxGeometry>
        </mxCell>
        <mxCell id="_YYFCsjl2TJpTi-xhkoP-35" value="" style="endArrow=none;html=1;rounded=0;" edge="1" parent="1" target="_YYFCsjl2TJpTi-xhkoP-12">
          <mxGeometry relative="1" as="geometry">
            <mxPoint x="410" y="180" as="sourcePoint" />
            <mxPoint x="570" y="180" as="targetPoint" />
          </mxGeometry>
        </mxCell>
      </root>
    </mxGraphModel>
  </diagram>
</mxfile>
